<svg width="32" height="32" viewBox="0 0 32 32" fill="none" xmlns="http://www.w3.org/2000/svg">
<path fill-rule="evenodd" clip-rule="evenodd" d="M16.0003 26.666C21.8914 26.666 26.667 21.8904 26.667 15.9993C26.667 10.1083 21.8914 5.33268 16.0003 5.33268C10.1093 5.33268 5.33366 10.1083 5.33366 15.9993C5.33366 21.8904 10.1093 26.666 16.0003 26.666ZM16.0003 29.3327C23.3641 29.3327 29.3337 23.3631 29.3337 15.9993C29.3337 8.63555 23.3641 2.66602 16.0003 2.66602C8.63653 2.66602 2.66699 8.63555 2.66699 15.9993C2.66699 23.3631 8.63653 29.3327 16.0003 29.3327Z" fill="#344054"/>
<path d="M16.0003 9.33268C15.2639 9.33268 14.667 9.92964 14.667 10.666V14.666H10.667C9.93061 14.666 9.33366 15.263 9.33366 15.9993C9.33366 16.7357 9.93061 17.3327 10.667 17.3327H14.667V21.3327C14.667 22.0691 15.2639 22.666 16.0003 22.666C16.7367 22.666 17.3337 22.0691 17.3337 21.3327V17.3327H21.3337C22.07 17.3327 22.667 16.7357 22.667 15.9993C22.667 15.263 22.07 14.666 21.3337 14.666H17.3337V10.666C17.3337 9.92964 16.7367 9.33268 16.0003 9.33268Z" fill="#344054"/>
</svg>
