<svg viewBox="0 0 23 22" fill="none" xmlns="http://www.w3.org/2000/svg">
<path d="M21.75 6H12.75V1C12.75 0.734784 12.6446 0.48043 12.4571 0.292893C12.2696 0.105357 12.0152 0 11.75 0H1.75C1.48478 0 1.23043 0.105357 1.04289 0.292893C0.855357 0.48043 0.75 0.734784 0.75 1V21C0.75 21.2652 0.855357 21.5196 1.04289 21.7071C1.23043 21.8946 1.48478 22 1.75 22H21.75C22.0152 22 22.2696 21.8946 22.4571 21.7071C22.6446 21.5196 22.75 21.2652 22.75 21V7C22.75 6.73478 22.6446 6.48043 22.4571 6.29289C22.2696 6.10536 22.0152 6 21.75 6ZM10.75 12H2.75V10H10.75V12ZM10.75 7V8H2.75V6H10.75V7ZM2.75 14H10.75V16H2.75V14ZM10.75 2V4H2.75V2H10.75ZM2.75 18H10.75V20H2.75V18ZM20.75 20H12.75V8H20.75V20ZM15.75 15H13.75V13H15.75V15ZM15.75 19H13.75V17H15.75V19ZM19.75 15H17.75V13H19.75V15ZM15.75 11H13.75V9H15.75V11ZM19.75 11H17.75V9H19.75V11ZM19.75 19H17.75V17H19.75V19Z" />
</svg>
