<svg width="17" height="16" viewBox="0 0 17 16" fill="none" xmlns="http://www.w3.org/2000/svg">
<g clip-path="url(#clip0_778_74)">
<path d="M8.32699 1.33301C4.64699 1.33301 1.66699 4.31967 1.66699 7.99967C1.66699 11.6797 4.64699 14.6663 8.32699 14.6663C12.0137 14.6663 15.0003 11.6797 15.0003 7.99967C15.0003 4.31967 12.0137 1.33301 8.32699 1.33301ZM8.33366 13.333C5.38699 13.333 3.00033 10.9463 3.00033 7.99967C3.00033 5.05301 5.38699 2.66634 8.33366 2.66634C11.2803 2.66634 13.667 5.05301 13.667 7.99967C13.667 10.9463 11.2803 13.333 8.33366 13.333Z" />
<path d="M8.66699 4.6665H7.66699V8.6665L11.167 10.7665L11.667 9.9465L8.66699 8.1665V4.6665Z" />
</g>
<defs>
<clipPath id="clip0_778_74">
<rect width="16" height="16" fill="white" transform="translate(0.333008)"/>
</clipPath>
</defs>
</svg>
