<svg width="16" height="16" viewBox="0 0 16 16" fill="none" xmlns="http://www.w3.org/2000/svg">
<g clip-path="url(#clip0_778_117)">
<path d="M7.8672 7.26667C6.35387 6.87333 5.8672 6.46667 5.8672 5.83333C5.8672 5.10667 6.54053 4.6 7.6672 4.6C8.85387 4.6 9.29387 5.16667 9.33387 6H10.8072C10.7605 4.85333 10.0605 3.8 8.6672 3.46V2H6.6672V3.44C5.37387 3.72 4.33387 4.56 4.33387 5.84667C4.33387 7.38667 5.6072 8.15333 7.4672 8.6C9.13387 9 9.4672 9.58667 9.4672 10.2067C9.4672 10.6667 9.14053 11.4 7.6672 11.4C6.29387 11.4 5.75387 10.7867 5.68053 10H4.21387C4.29387 11.46 5.3872 12.28 6.6672 12.5533V14H8.6672V12.5667C9.9672 12.32 11.0005 11.5667 11.0005 10.2C11.0005 8.30667 9.38053 7.66 7.8672 7.26667Z" />
</g>
<defs>
<clipPath id="clip0_778_117">
<rect width="16" height="16" fill="white"/>
</clipPath>
</defs>
</svg>
