<svg width="24" height="24" viewBox="0 0 24 24" fill="none" xmlns="http://www.w3.org/2000/svg">
<path fill-rule="evenodd" clip-rule="evenodd" d="M3 5.9997C3 4.34284 4.34315 2.9997 6 2.9997H11C11.5523 2.9997 12 3.44741 12 3.9997C12 4.55198 11.5523 4.9997 11 4.9997H6C5.44772 4.9997 5 5.44741 5 5.9997V17.9997C5 18.552 5.44772 18.9997 6 18.9997H18C18.5523 18.9997 19 18.552 19 17.9997V11.9997C19 11.4474 19.4477 10.9997 20 10.9997C20.5523 10.9997 21 11.4474 21 11.9997V17.9997C21 19.6566 19.6569 20.9997 18 20.9997H6C4.34315 20.9997 3 19.6566 3 17.9997V5.9997Z" fill="#344054"/>
<path d="M17.3143 3.41391C18.0954 2.63286 19.3617 2.63286 20.1427 3.41391C20.9238 4.19496 20.9238 5.46129 20.1427 6.24234L13.0717 13.3134C12.6811 13.7039 12.048 13.7039 11.6574 13.3134L10.2432 11.8992C9.85271 11.5087 9.85271 10.8755 10.2432 10.485L17.3143 3.41391Z" fill="#344054"/>
<path d="M8.55711 12.971C8.33395 12.7479 7.95253 12.7437 7.86323 13.0464L7.20995 15.2608C7.00429 15.9579 7.59784 16.5515 8.29495 16.3458L10.5094 15.6925C10.8121 15.6032 10.8079 15.2218 10.5847 14.9986L8.55711 12.971Z" fill="#344054"/>
</svg>
