        <svg
          viewBox="0 0 22 20"
          fill="none"
          xmlns="http://www.w3.org/2000/svg"
        >
          <path
            d="M8.75037 1.10439V6.81839C8.75037 7.11386 8.69218 7.40644 8.5791 7.67943C8.46603 7.95241 8.3003 8.20045 8.09137 8.40939L4.00037 12.5004M8.75037 1.10439C8.49937 1.12739 8.24937 1.15439 8.00037 1.18639M8.75037 1.10439C10.2471 0.965204 11.7536 0.965204 13.2504 1.10439M4.00037 12.5004L4.77037 12.3074C6.86337 11.7902 9.07219 12.0359 11.0004 13.0004C12.9286 13.9649 15.1374 14.2106 17.2304 13.6934L18.8004 13.3004M4.00037 12.5004L1.79837 14.7034C0.565369 15.9344 1.14737 18.0204 2.86537 18.3134C5.50937 18.7654 8.22737 19.0004 11.0004 19.0004C13.7266 19.0013 16.4479 18.7715 19.1354 18.3134C20.8524 18.0204 21.4344 15.9344 20.2024 14.7024L18.8004 13.3004M13.2504 1.10439V6.81839C13.2504 7.41539 13.4874 7.98839 13.9094 8.40939L18.8004 13.3004M13.2504 1.10439C13.5014 1.12739 13.7514 1.15439 14.0004 1.18639"
            stroke-linecap="round"
            stroke-width="1.5" 
            stroke-linejoin="round"
          />
        </svg>