<svg width="16" height="16" viewBox="0 0 16 16" fill="none" xmlns="http://www.w3.org/2000/svg">
<path d="M8 1.49951C5.51562 1.49951 3.5 3.41795 3.5 5.78076C3.5 8.49951 6.5 12.8079 7.60156 14.2961C7.64729 14.3589 7.70722 14.41 7.77646 14.4453C7.84571 14.4805 7.9223 14.4989 8 14.4989C8.0777 14.4989 8.15429 14.4805 8.22354 14.4453C8.29278 14.41 8.35271 14.3589 8.39844 14.2961C9.5 12.8086 12.5 8.5017 12.5 5.78076C12.5 3.41795 10.4844 1.49951 8 1.49951Z" stroke="#344054" stroke-linecap="round" stroke-linejoin="round"/>
<path d="M8 7.49951C8.82843 7.49951 9.5 6.82794 9.5 5.99951C9.5 5.17108 8.82843 4.49951 8 4.49951C7.17157 4.49951 6.5 5.17108 6.5 5.99951C6.5 6.82794 7.17157 7.49951 8 7.49951Z" stroke="#344054" stroke-linecap="round" stroke-linejoin="round"/>
</svg>
