<svg width="150" height="40" viewBox="0 0 150 40" fill="none" xmlns="http://www.w3.org/2000/svg">
	<g clip-path="url(#clip0_1_910)">
		<path d="M26.8915 14.0247H29.6946V23.7211H35.7683V25.9744H26.8904V14.0247H26.8915Z" fill="#414143" />
		<path d="M46.2903 23.4137H40.6665L39.5935 25.9744H36.7212L42.1201 14.0247H44.8893L50.3058 25.9744H47.3644L46.2914 23.4137H46.2903ZM45.4082 21.314L43.4872 16.7391L41.5661 21.314H45.4082Z" fill="#414143" />
		<path d="M63.543 22.7149C63.543 24.781 61.8819 25.9759 58.697 25.9759H52.4324V14.0261H58.3514C61.3794 14.0261 62.9373 15.2719 62.9373 17.1334C62.9373 18.3283 62.3142 19.2504 61.3279 19.7624C62.6773 20.1888 63.543 21.2137 63.543 22.716V22.7149ZM55.2191 16.1085V18.9257H58.0058C59.3728 18.9257 60.1166 18.4474 60.1166 17.509C60.1166 16.5706 59.3728 16.1096 58.0058 16.1096H55.2191V16.1085ZM60.7222 22.4248C60.7222 21.4172 59.9433 20.9399 58.4896 20.9399H55.2191V23.8935H58.4896C59.9433 23.8935 60.7222 23.4498 60.7222 22.4248Z" fill="#414143" />
		<path d="M65.7754 20.0003C65.7754 16.4492 68.5785 13.8203 72.4031 13.8203C76.2277 13.8203 79.0308 16.4319 79.0308 20.0003C79.0308 23.5687 76.2101 26.1803 72.4031 26.1803C68.5961 26.1803 65.7754 23.5514 65.7754 20.0003ZM76.1926 20.0003C76.1926 17.7296 74.5656 16.1765 72.4031 16.1765C70.2407 16.1765 68.6137 17.7296 68.6137 20.0003C68.6137 22.271 70.2407 23.8241 72.4031 23.8241C74.5656 23.8241 76.1926 22.271 76.1926 20.0003Z" fill="#414143" />
		<path d="M89.7265 25.9759L87.3907 22.6467H84.8124V25.9759H82.0093V14.0261H87.2524C90.489 14.0261 92.5132 15.6821 92.5132 18.3619C92.5132 20.1542 91.596 21.4692 90.0216 22.1348L92.7381 25.9759H89.7265ZM87.0955 16.2795H84.8113V20.4453H87.0955C88.8093 20.4453 89.6738 19.6595 89.6738 18.3629C89.6738 17.0663 88.8082 16.2806 87.0955 16.2806V16.2795Z" fill="#414143" />
		<path d="M97.1506 14.8108V19.915H103.605V20.7007H97.1506V25.9759H96.2686V14.0261H104.368V14.8119H97.1506V14.8108Z" fill="#414143" />
		<path d="M108.052 14.0247H108.935V25.1898H115.909V25.9755H108.052V14.0257V14.0247Z" fill="#414143" />
		<path d="M117.639 20.0005C117.639 16.535 120.322 13.9407 123.938 13.9407C127.554 13.9407 130.236 16.5187 130.236 20.0005C130.236 23.4823 127.536 26.0604 123.938 26.0604C120.339 26.0604 117.639 23.465 117.639 20.0005ZM129.338 20.0005C129.338 16.9787 127.018 14.7427 123.939 14.7427C120.859 14.7427 118.522 16.9787 118.522 20.0005C118.522 23.0223 120.842 25.2584 123.939 25.2584C127.036 25.2584 129.338 23.0223 129.338 20.0005Z" fill="#414143" />
		<path d="M149.999 14.0247L145.898 25.9744H144.964L141.208 15.2531L137.435 25.9744H136.5L132.382 14.0247H133.317L137.003 24.7796L140.792 14.0247H141.64L145.413 24.7969L149.134 14.0247H149.999Z" fill="#414143" />
		<path d="M8.43447 18.3822C9.99238 16.8659 13.0424 13.8246 14.4588 12.4858C17.9443 9.19122 17.9443 7.71819 17.9443 5.84905V0.000244141L1.4008 16.3193C-0.465408 18.4255 -0.466506 21.5739 1.4008 23.6812L4.64061 26.8772C3.93516 24.4604 4.93793 21.7882 8.43556 18.3833L8.43447 18.3822Z" fill="url(#paint0_linear_1_910)" />
		<path d="M12.5816 34.6547C13.6282 35.6937 15.1675 37.2316 17.9421 40.0002C17.9421 40.0002 17.9641 35.7164 17.9421 34.2304C17.9235 32.9738 17.8094 32.0117 16.4906 30.7118C15.7095 29.9412 14.7879 29.0321 14.2009 28.453C13.8597 28.1164 13.7346 27.203 14.1439 26.5449C12.1877 28.8524 11.6709 31.9337 12.5816 34.6558V34.6547Z" fill="url(#paint1_linear_1_910)" />
		<path d="M9.84385 22.5721C6.89039 25.5008 6.94415 29.2143 9.03308 31.2111C10.614 32.722 11.1045 33.1885 12.5823 34.655C11.6706 31.933 12.1884 28.8517 14.1446 26.5442C14.2049 26.4479 14.2751 26.357 14.3585 26.2747C15.1517 25.4933 16.1348 24.5224 16.6186 24.0462C17.9944 22.689 17.9428 20.73 17.9428 20.73V14.5251C17.9428 14.5251 12.0107 20.4237 9.84385 22.5732V22.5721Z" fill="url(#paint2_linear_1_910)" />
	</g>
	<defs>
		<linearGradient id="paint0_linear_1_910" x1="-0.780283" y1="13.4382" x2="22.4415" y2="13.4382" gradientUnits="userSpaceOnUse">
			<stop stop-color="#00FFFF" />
			<stop offset="1" stop-color="#007CFB" />
		</linearGradient>
		<linearGradient id="paint1_linear_1_910" x1="19.4386" y1="36.0736" x2="14.0188" y2="31.4781" gradientUnits="userSpaceOnUse">
			<stop stop-color="#00FFFF" />
			<stop offset="1" stop-color="#007CFB" />
		</linearGradient>
		<linearGradient id="paint2_linear_1_910" x1="-0.780702" y1="24.5895" x2="22.441" y2="24.5895" gradientUnits="userSpaceOnUse">
			<stop stop-color="#00FFFF" />
			<stop offset="1" stop-color="#007CFB" />
		</linearGradient>
		<clipPath id="clip0_1_910">
			<rect width="150" height="40" fill="white" />
		</clipPath>
	</defs>
</svg>
