<svg width="148" height="32" viewBox="0 0 148 32" fill="none" xmlns="http://www.w3.org/2000/svg">
	<path d="M13.6591 1.90909H17.1818V22.7045C17.1818 24.5606 16.8409 26.1373 16.1591 27.4347C15.4773 28.732 14.5161 29.7169 13.2756 30.3892C12.035 31.0616 10.572 31.3977 8.88636 31.3977C7.29545 31.3977 5.87973 31.1089 4.6392 30.5312C3.39867 29.9441 2.4233 29.1108 1.71307 28.0312C1.00284 26.9517 0.647727 25.6686 0.647727 24.1818H4.11364C4.11364 25.0057 4.31723 25.7254 4.72443 26.3409C5.1411 26.947 5.70928 27.4205 6.42898 27.7614C7.14867 28.1023 7.9678 28.2727 8.88636 28.2727C9.89962 28.2727 10.7614 28.0597 11.4716 27.6335C12.1818 27.2074 12.7216 26.5824 13.0909 25.7585C13.4697 24.9252 13.6591 23.9072 13.6591 22.7045V1.90909ZM32.6506 31.4545C30.6809 31.4545 28.9527 30.9858 27.4659 30.0483C25.9886 29.1108 24.8333 27.7992 24 26.1136C23.1761 24.428 22.7642 22.4583 22.7642 20.2045C22.7642 17.9318 23.1761 15.9479 24 14.2528C24.8333 12.5578 25.9886 11.2415 27.4659 10.304C28.9527 9.36648 30.6809 8.89773 32.6506 8.89773C34.6203 8.89773 36.3438 9.36648 37.821 10.304C39.3078 11.2415 40.4631 12.5578 41.2869 14.2528C42.1203 15.9479 42.5369 17.9318 42.5369 20.2045C42.5369 22.4583 42.1203 24.428 41.2869 26.1136C40.4631 27.7992 39.3078 29.1108 37.821 30.0483C36.3438 30.9858 34.6203 31.4545 32.6506 31.4545ZM32.6506 28.4432C34.1468 28.4432 35.3778 28.0597 36.3438 27.2926C37.3097 26.5256 38.0246 25.517 38.4886 24.267C38.9527 23.017 39.1847 21.6629 39.1847 20.2045C39.1847 18.7462 38.9527 17.3873 38.4886 16.1278C38.0246 14.8684 37.3097 13.8504 36.3438 13.0739C35.3778 12.2973 34.1468 11.9091 32.6506 11.9091C31.1544 11.9091 29.9233 12.2973 28.9574 13.0739C27.9915 13.8504 27.2765 14.8684 26.8125 16.1278C26.3485 17.3873 26.1165 18.7462 26.1165 20.2045C26.1165 21.6629 26.3485 23.017 26.8125 24.267C27.2765 25.517 27.9915 26.5256 28.9574 27.2926C29.9233 28.0597 31.1544 28.4432 32.6506 28.4432ZM48.1087 31V1.90909H51.4609V12.6477H51.745C51.9912 12.2689 52.3321 11.786 52.7678 11.1989C53.2128 10.6023 53.8473 10.072 54.6712 9.60795C55.5045 9.13447 56.6314 8.89773 58.0518 8.89773C59.889 8.89773 61.5083 9.35701 62.9098 10.2756C64.3113 11.1941 65.4051 12.4962 66.1911 14.1818C66.977 15.8674 67.37 17.8561 67.37 20.1477C67.37 22.4583 66.977 24.4612 66.1911 26.1562C65.4051 27.8419 64.3161 29.1487 62.924 30.0767C61.532 30.9953 59.9268 31.4545 58.1087 31.4545C56.7071 31.4545 55.585 31.2225 54.7422 30.7585C53.8994 30.285 53.2507 29.75 52.7962 29.1534C52.3416 28.5473 51.9912 28.0455 51.745 27.6477H51.3473V31H48.1087ZM51.4041 20.0909C51.4041 21.7386 51.6456 23.1922 52.1286 24.4517C52.6115 25.7017 53.317 26.6818 54.245 27.392C55.1731 28.0928 56.3094 28.4432 57.6541 28.4432C59.0556 28.4432 60.2251 28.0739 61.1626 27.3352C62.1096 26.5871 62.8198 25.5833 63.2933 24.3239C63.7763 23.0549 64.0178 21.6439 64.0178 20.0909C64.0178 18.5568 63.781 17.1742 63.3075 15.9432C62.8435 14.7027 62.138 13.7225 61.1911 13.0028C60.2536 12.2737 59.0746 11.9091 57.6541 11.9091C56.2905 11.9091 55.1446 12.2547 54.2166 12.946C53.2886 13.6278 52.5878 14.5843 52.1143 15.8153C51.6409 17.0369 51.4041 18.4621 51.4041 20.0909ZM82.2138 9.18182V12.0227H70.4524V9.18182H82.2138ZM73.9751 31V6.17045C73.9751 4.92045 74.2687 3.87879 74.8558 3.04545C75.4429 2.21212 76.2053 1.58712 77.1428 1.17045C78.0803 0.753786 79.0698 0.545453 80.1115 0.545453C80.9354 0.545453 81.6077 0.611741 82.1286 0.744318C82.6494 0.876893 83.0376 0.999998 83.2933 1.11364L82.3274 4.01136C82.157 3.95454 81.9202 3.88352 81.6172 3.7983C81.3236 3.71307 80.9354 3.67045 80.4524 3.67045C79.3445 3.67045 78.5443 3.94981 78.0518 4.50852C77.5689 5.06723 77.3274 5.88636 77.3274 6.96591V31H73.9751ZM90.2642 1.90909V31H86.9119V1.90909H90.2642ZM105.268 31.4545C103.298 31.4545 101.57 30.9858 100.083 30.0483C98.6058 29.1108 97.4505 27.7992 96.6172 26.1136C95.7933 24.428 95.3814 22.4583 95.3814 20.2045C95.3814 17.9318 95.7933 15.9479 96.6172 14.2528C97.4505 12.5578 98.6058 11.2415 100.083 10.304C101.57 9.36648 103.298 8.89773 105.268 8.89773C107.237 8.89773 108.961 9.36648 110.438 10.304C111.925 11.2415 113.08 12.5578 113.904 14.2528C114.737 15.9479 115.154 17.9318 115.154 20.2045C115.154 22.4583 114.737 24.428 113.904 26.1136C113.08 27.7992 111.925 29.1108 110.438 30.0483C108.961 30.9858 107.237 31.4545 105.268 31.4545ZM105.268 28.4432C106.764 28.4432 107.995 28.0597 108.961 27.2926C109.927 26.5256 110.642 25.517 111.106 24.267C111.57 23.017 111.802 21.6629 111.802 20.2045C111.802 18.7462 111.57 17.3873 111.106 16.1278C110.642 14.8684 109.927 13.8504 108.961 13.0739C107.995 12.2973 106.764 11.9091 105.268 11.9091C103.772 11.9091 102.54 12.2973 101.575 13.0739C100.609 13.8504 99.8937 14.8684 99.4297 16.1278C98.9657 17.3873 98.7337 18.7462 98.7337 20.2045C98.7337 21.6629 98.9657 23.017 99.4297 24.267C99.8937 25.517 100.609 26.5256 101.575 27.2926C102.54 28.0597 103.772 28.4432 105.268 28.4432ZM124.472 31L117.825 9.18182H121.347L126.063 25.8864H126.29L130.95 9.18182H134.529L139.131 25.8295H139.359L144.075 9.18182H147.597L140.95 31H137.654L132.881 14.2386H132.54L127.768 31H124.472Z" fill="black" />
</svg>
