<svg width="121" height="49" viewBox="0 0 121 49" fill="none" xmlns="http://www.w3.org/2000/svg">
<g clip-path="url(#clip0_824_38830)">
<path d="M8.92796 34.788C9.33944 38.7096 10.9123 42.165 15.2369 42.165C19.4052 42.165 20.9504 39.5543 20.9504 36.0356C20.9504 32.1502 19.038 29.892 13.0584 27.0376C4.96154 23.191 1.79162 19.7915 1.79162 12.7656C1.79162 5.1799 6.66524 0 15.2176 0C25.8558 0 28.4781 7.19624 28.618 13.3526H20.3209C20.0502 10.6489 19.3511 6.67173 15.069 6.67173C11.7184 6.67173 10.2195 8.84618 10.2195 12.0559C10.2195 15.4601 11.7344 17.0531 17.2778 19.6276C25.7629 23.5498 29.5716 27.357 29.5716 35.2721C29.5716 42.6969 24.9725 48.8365 14.9825 48.8365C4.10937 48.8365 0.796366 41.8757 0.500244 34.788H8.92796Z" fill="#85D3CD"/>
<path d="M34.1761 0H40.8316V16.1286H49.7741V0H56.4295V40.8065H49.7741V22.4703H40.8316V40.8065H34.1761V0Z" fill="#85D3CD"/>
<path d="M62.8896 0H69.5448V37.1075H62.8896V0Z" fill="#85D3CD"/>
<path d="M76.1027 0H95.1876V5.81511H82.7094V15.356H94.4552V21.0742H82.7094V37.1075H76.1027V0Z" fill="#85D3CD"/>
<path d="M105.917 5.81511H97.9882V0H120.5V5.81511H112.572V37.1075H105.917V5.81511Z" fill="#85D3CD"/>
<path d="M36.3662 47.2221L34.4032 45.2422H35.5841L36.8678 46.585L38.1675 45.2422H39.1962L37.2416 47.2056V48.8369H36.3662V47.2221Z" fill="black"/>
<path d="M43.7337 45.9053H40.836V48.1488H43.7337V45.9053ZM39.9606 46.092C39.9606 45.9221 39.9762 45.7817 40.0076 45.6714C40.0383 45.5614 40.0907 45.4731 40.1644 45.4081C40.2379 45.3429 40.3344 45.2991 40.4538 45.2767C40.5727 45.2536 40.7198 45.2422 40.8953 45.2422H43.6743C43.8499 45.2422 43.9971 45.2536 44.1164 45.2767C44.2354 45.2991 44.3313 45.3429 44.4054 45.4081C44.4788 45.4731 44.5309 45.5614 44.5622 45.6714C44.5935 45.7817 44.6092 45.9221 44.6092 46.092V47.9873C44.6092 48.1573 44.5935 48.2976 44.5622 48.4079C44.5309 48.5186 44.4788 48.6051 44.4054 48.6672C44.3313 48.7298 44.2354 48.7734 44.1164 48.799C43.9971 48.8244 43.8499 48.8371 43.6743 48.8371H40.8953C40.7139 48.8371 40.5638 48.8244 40.4449 48.799C40.3261 48.7734 40.2313 48.7298 40.1602 48.6672C40.0893 48.6051 40.0383 48.5186 40.0076 48.4079C39.9762 48.2976 39.9606 48.1573 39.9606 47.9873V46.092Z" fill="black"/>
<path d="M46.9968 48.1733H49.4953V45.25H50.379V47.9945C50.379 48.164 50.3633 48.302 50.332 48.4079C50.3013 48.5143 50.2486 48.6 50.175 48.664C50.1015 48.7281 50.0035 48.773 49.882 48.7984C49.7601 48.8234 49.6115 48.8361 49.4358 48.8361H47.0563C46.8749 48.8361 46.7246 48.8234 46.6058 48.7984C46.4869 48.773 46.3921 48.7281 46.3212 48.664C46.2502 48.6 46.199 48.5143 46.1683 48.4079C46.137 48.302 46.1213 48.164 46.1213 47.9945V45.25H46.9968V48.1733Z" fill="black"/>
<path d="M52.8435 45.8626V46.857H54.8404C54.9708 46.857 55.0699 46.8386 55.1376 46.8017C55.206 46.7653 55.2398 46.687 55.2398 46.5681V46.1515C55.2398 46.0328 55.206 45.9551 55.1376 45.918C55.0699 45.8814 54.9708 45.8626 54.8404 45.8626H52.8435ZM51.9766 45.2422H55.2142C55.5029 45.2422 55.7157 45.2949 55.8518 45.3997C55.9874 45.5044 56.0558 45.6844 56.0558 45.9392V46.7893C56.0558 47.0384 55.9874 47.2158 55.8518 47.3205C55.7157 47.4253 55.5029 47.4774 55.2142 47.4774H54.7215L56.4296 48.8371H55.1719L53.6678 47.4774H52.8435V48.8371H51.9766V45.2422Z" fill="black"/>
<path d="M64.5468 43.4996V47.6159H68.6256V46.2185L70.1359 46.5334V47.3009C70.1359 47.6034 70.1086 47.8551 70.054 48.0566C69.9994 48.2579 69.9096 48.4154 69.7832 48.5286C69.6577 48.6416 69.4916 48.7216 69.2865 48.7678C69.0805 48.8139 68.8269 48.837 68.5247 48.837H64.6476C64.3453 48.837 64.0917 48.8139 63.8858 48.7678C63.6803 48.7216 63.5145 48.6416 63.389 48.5286C63.2629 48.4154 63.1723 48.2579 63.1183 48.0566C63.0637 47.8551 63.0364 47.6034 63.0364 47.3009V43.8772C63.0364 43.575 63.0637 43.3237 63.1183 43.1222C63.1723 42.9209 63.2629 42.7634 63.389 42.65C63.5145 42.5365 63.6803 42.4572 63.8858 42.4108C64.0917 42.3651 64.3453 42.3418 64.6476 42.3418H68.5247C68.8269 42.3418 69.0805 42.3651 69.2865 42.4108C69.4916 42.4572 69.6577 42.5365 69.7832 42.65C69.9096 42.7634 69.9994 42.9209 70.054 43.1222C70.1086 43.3237 70.1359 43.575 70.1359 43.8772V44.4942L68.6256 44.7334V43.4996H64.5468Z" fill="black"/>
<path d="M77.7641 46.2439L76.3671 43.6006L74.9193 46.2439H77.7641ZM75.6868 42.3418H77.1475L80.8737 48.837H79.1738L78.3934 47.4146H74.2771L73.5221 48.837H72.0118L75.6868 42.3418Z" fill="black"/>
<path d="M84.4486 43.4619V45.2746H87.8471C88.0818 45.2746 88.2541 45.2431 88.3636 45.18C88.4721 45.117 88.5268 44.9766 88.5268 44.7582V43.978C88.5268 43.76 88.4721 43.6192 88.3636 43.5559C88.2541 43.4935 88.0818 43.4619 87.8471 43.4619H84.4486ZM82.9629 42.3418H88.5268C89.0303 42.3418 89.4001 42.4383 89.6346 42.6311C89.8696 42.8242 89.9873 43.1472 89.9873 43.6004V45.1237C89.9873 45.5767 89.8696 45.8999 89.6346 46.0927C89.4001 46.2858 89.0303 46.3823 88.5268 46.3823H87.671L90.6669 48.837H88.5018L85.8833 46.3823H84.4486V48.837H82.9629V42.3418Z" fill="black"/>
<path d="M93.0581 42.3418H99.7044V43.4492H94.5686V44.8966H97.5647V46.0047H94.5686V47.6159H99.7675V48.837H93.0581V42.3418Z" fill="black"/>
<path d="M102.562 42.3418H109.208V43.4492H104.072V44.8966H107.069V46.0047H104.072V47.6159H109.271V48.837H102.562V42.3418Z" fill="black"/>
<path d="M113.551 43.4619V45.2746H116.95C117.185 45.2746 117.357 45.2431 117.466 45.18C117.575 45.117 117.629 44.9766 117.629 44.7582V43.978C117.629 43.76 117.575 43.6192 117.466 43.5559C117.357 43.4935 117.185 43.4619 116.95 43.4619H113.551ZM112.066 42.3418H117.629C118.133 42.3418 118.503 42.4383 118.738 42.6311C118.972 42.8242 119.09 43.1472 119.09 43.6004V45.1237C119.09 45.5767 118.972 45.8999 118.738 46.0927C118.503 46.2858 118.133 46.3823 117.629 46.3823H116.774L119.77 48.837H117.604L114.986 46.3823H113.551V48.837H112.066V42.3418Z" fill="black"/>
</g>
<defs>
<clipPath id="clip0_824_38830">
<rect width="120" height="48.8362" fill="white" transform="translate(0.5)"/>
</clipPath>
</defs>
</svg>
