<svg width="77" height="32" viewBox="0 0 77 32" fill="none" xmlns="http://www.w3.org/2000/svg">
<path d="M5.36002 22.2108C5.62168 24.7146 6.62216 26.9209 9.37261 26.9209C12.0237 26.9209 13.0065 25.2541 13.0065 23.0074C13.0065 20.5268 11.7901 19.085 7.987 17.2626C2.83733 14.8063 0.821217 12.6361 0.821217 8.15033C0.821217 3.30719 3.92087 0 9.36037 0C16.1264 0 17.7942 4.59446 17.8833 8.52511H12.6061C12.4339 6.79895 11.9893 4.25934 9.26631 4.25934C7.1348 4.25934 6.18147 5.64791 6.18147 7.69724C6.18147 9.87086 7.14479 10.8877 10.6707 12.5315C16.0673 15.0356 18.4897 17.4669 18.4897 22.5199C18.4897 27.2604 15.5646 31.1802 9.21086 31.1802C2.29539 31.1802 0.188242 26.7359 0 22.2108H5.36002Z" fill="white"/>
<path d="M21.4182 0H25.6511V10.2975H31.3387V0H35.5716V26.0533H31.3387V14.3463H25.6511V26.0533H21.4182V0Z" fill="white"/>
<path d="M39.6805 23.6914H43.9133V-0.000234604H39.6805V23.6914Z" fill="white"/>
<path d="M48.0842 0H60.2226V3.71273H52.2865V9.80415H59.7571V13.455H52.2862V23.6916H48.0842V0Z" fill="white"/>
<path d="M67.0464 3.71273H62.0037V0H76.3215V3.71273H71.2792V23.6916H67.0464V3.71273Z" fill="white"/>
<path d="M22.8112 30.1509L21.5627 28.8867H22.3138L23.1302 29.7441L23.9568 28.8867H24.6111L23.3679 30.1403V31.1818H22.8112V30.1509Z" fill="white"/>
<path d="M27.4967 29.3108H25.6538V30.7431H27.4969L27.4967 29.3108ZM25.097 29.43C25.0948 29.3395 25.1049 29.2492 25.1268 29.1615C25.1429 29.0968 25.1776 29.0383 25.2266 28.9933C25.2791 28.949 25.3428 28.92 25.4106 28.9094C25.5032 28.8931 25.5972 28.8856 25.6912 28.8869H27.4587C27.5529 28.8856 27.6471 28.8931 27.7399 28.9094C27.8076 28.9201 27.8711 28.9491 27.9236 28.9933C27.9724 29.0385 28.0071 29.0969 28.0234 29.1615C28.0454 29.2492 28.0554 29.3395 28.0533 29.43V30.64C28.0554 30.7304 28.0454 30.8207 28.0234 30.9085C28.0076 30.9725 27.9728 31.0302 27.9236 31.074C27.8703 31.1169 27.8071 31.1458 27.7399 31.1582C27.6472 31.1759 27.553 31.1841 27.4587 31.1825H25.6915C25.5955 31.1842 25.4995 31.1761 25.4051 31.1582C25.3385 31.1462 25.2762 31.1172 25.224 31.074C25.1761 31.0297 25.1423 30.9721 25.1269 30.9085C25.105 30.8207 25.0949 30.7304 25.0971 30.64L25.097 29.43Z" fill="white"/>
<path d="M29.5725 30.7571H31.1616V28.8906H31.7236V30.6434C31.726 30.7323 31.7159 30.8211 31.6938 30.9073C31.6772 30.9704 31.6424 31.0273 31.5939 31.0708C31.5401 31.115 31.476 31.1446 31.4075 31.1566C31.314 31.174 31.2189 31.1821 31.1238 31.1806H29.6103C29.5143 31.1823 29.4183 31.1743 29.3238 31.1566C29.257 31.1446 29.1945 31.115 29.1428 31.0708C29.0956 31.0266 29.0619 30.9699 29.0456 30.9073C29.0234 30.8211 29.0134 30.7323 29.0157 30.6434V28.8906H29.5725V30.7571Z" fill="white"/>
<path d="M33.2911 29.2828V29.9182H34.5611C34.6261 29.9218 34.6911 29.9095 34.7504 29.8825C34.774 29.8663 34.7927 29.8437 34.8042 29.8173C34.8157 29.7909 34.8195 29.7618 34.8154 29.7333V29.4675C34.8195 29.439 34.8156 29.4099 34.8041 29.3835C34.7927 29.3571 34.774 29.3345 34.7504 29.3182C34.6911 29.2914 34.6263 29.2793 34.5613 29.2828H33.2911ZM32.7397 28.8868H34.7989C34.9412 28.8757 35.0834 28.9109 35.2043 28.9873C35.2513 29.0306 35.2875 29.0844 35.31 29.1443C35.3325 29.2042 35.3408 29.2686 35.3341 29.3323V29.875C35.3404 29.9378 35.3319 30.0011 35.3094 30.0601C35.2868 30.119 35.2509 30.1717 35.2043 30.2141C35.0834 30.2903 34.9412 30.3255 34.7989 30.3143H34.4855L35.5719 31.182H34.772L33.8153 30.3139H33.2911V31.1815H32.7397V28.8868Z" fill="white"/>
<path d="M40.7348 27.7732V30.4012H43.3289V29.509L44.2895 29.7101V30.2002C44.2928 30.3626 44.2752 30.5247 44.2369 30.6826C44.2103 30.7977 44.1505 30.9025 44.0652 30.984C43.9747 31.0614 43.8659 31.114 43.7492 31.1367C43.5898 31.1689 43.4273 31.1837 43.2647 31.1809H40.7988C40.6362 31.1837 40.4738 31.1689 40.3144 31.1367C40.1977 31.1141 40.0888 31.0615 39.9984 30.984C39.9128 30.9027 39.8529 30.7978 39.8262 30.6826C39.7881 30.5247 39.7706 30.3625 39.7741 30.2001V28.0141C39.7706 27.8518 39.7881 27.6898 39.8262 27.532C39.8529 27.4167 39.9128 27.3117 39.9984 27.2303C40.0888 27.1528 40.1977 27.1002 40.3144 27.0776C40.4738 27.0456 40.6363 27.0308 40.7988 27.0335H43.2647C43.4273 27.0308 43.5898 27.0456 43.7492 27.0776C43.8659 27.1002 43.9748 27.1528 44.0652 27.2303C44.1506 27.3119 44.2103 27.4169 44.2369 27.5322C44.275 27.69 44.2925 27.852 44.289 28.0143V28.4087L43.3285 28.5614V27.7736L40.7348 27.7732Z" fill="white"/>
<path d="M49.1407 29.5246L48.2522 27.8368L47.3317 29.5245L49.1407 29.5246ZM47.8195 27.0332H48.7486L51.1186 31.1799H50.0373L49.541 30.272H46.9229L46.4427 31.1801H45.4822L47.8195 27.0332Z" fill="white"/>
<path d="M53.3922 27.7484V28.9057H55.5537C55.6664 28.9132 55.7793 28.8924 55.8821 28.8453C55.9512 28.8051 55.9858 28.7153 55.9859 28.576V28.0779C55.9859 27.9387 55.9513 27.8489 55.8821 27.8084C55.7792 27.7618 55.6664 27.7412 55.5537 27.7485L53.3922 27.7484ZM52.4473 27.0332H55.9859C56.3062 27.0332 56.5411 27.0948 56.6905 27.2179C56.84 27.341 56.9148 27.5473 56.915 27.8367V28.8094C56.915 29.0986 56.8402 29.3048 56.6905 29.428C56.5409 29.5512 56.306 29.6128 55.9859 29.6129H55.4416L57.3472 31.1802H55.9701L54.3047 29.6129H53.3922V31.1802H52.4473V27.0332Z" fill="white"/>
<path d="M58.8679 27.0332H63.0951V27.7403H59.8286V28.6643H61.7342V29.3717H59.8286V30.4003H63.1352V31.1799H58.8679V27.0332Z" fill="white"/>
<path d="M64.9128 27.0332H69.1398V27.7403H65.8735V28.6643H67.7791V29.3717H65.8735V30.4003H69.1801V31.1799H64.9128V27.0332Z" fill="white"/>
<path d="M71.9022 27.7484V28.9057H74.0636C74.1763 28.9132 74.2892 28.8924 74.392 28.8453C74.4611 28.8051 74.4957 28.7153 74.4958 28.576V28.0779C74.4958 27.9387 74.4612 27.8489 74.392 27.8084C74.2891 27.7617 74.1763 27.7411 74.0636 27.7485L71.9022 27.7484ZM70.9573 27.0332H74.4958C74.8163 27.0332 75.0512 27.0948 75.2005 27.2179C75.3499 27.341 75.4247 27.5473 75.425 27.8367V28.8094C75.425 29.0986 75.3502 29.3048 75.2005 29.428C75.0509 29.5512 74.816 29.6128 74.4958 29.6129H73.9516L75.8572 31.1802H74.48L72.8146 29.6129H71.9022V31.1802H70.9573V27.0332Z" fill="white"/>
</svg>
