<svg width="32" height="32" viewBox="0 0 32 32" fill="none" xmlns="http://www.w3.org/2000/svg">
<path d="M31.5963 15.2512L27.8398 14.0403C25.4371 13.2475 24.0294 11.3032 23.3687 8.86001L21.7156 0.80769C21.6725 0.648585 21.5673 0.435547 21.2437 0.435547C20.9714 0.435547 20.8149 0.648585 20.7718 0.80769L19.1187 8.8627C18.4553 11.3059 17.0504 13.2502 14.6476 14.043L10.8911 15.2539C10.3599 15.4264 10.3518 16.1761 10.8803 16.3568L14.6638 17.6593C17.0585 18.4548 18.4553 20.3964 19.1187 22.8289L20.7745 30.7922C20.8176 30.9513 20.9066 31.2371 21.2464 31.2371C21.6051 31.2371 21.6752 30.9513 21.7183 30.7922L23.3741 22.8289C24.0375 20.3937 25.4344 18.4521 27.829 17.6593L31.6125 16.3568C32.1357 16.1734 32.1276 15.4237 31.5963 15.2512Z" fill="#5DC4BC"/>
<path d="M31.9528 15.588C31.8935 15.4397 31.7775 15.3102 31.5969 15.2509L27.8404 14.0401C25.4376 13.2473 24.03 11.3029 23.3693 8.85974L21.7162 0.807423C21.6919 0.715735 21.6056 0.54854 21.5059 0.5L22.0398 8.58198C22.4362 12.271 22.776 14.0077 25.7208 14.5147C28.2503 14.9516 31.1762 15.4531 31.9528 15.588Z" fill="#5DC4BC"/>
<path d="M31.961 16.0098L25.4458 17.5037C23.1509 18.0862 21.8862 19.4157 21.8862 22.8944L21.2471 31.238C21.4655 31.2164 21.6435 31.0977 21.719 30.793L23.3748 22.8297C24.0381 20.3946 25.435 18.453 27.8297 17.6601L31.6131 16.3576C31.7911 16.2929 31.9044 16.1608 31.961 16.0098Z" fill="#5DC4BC"/>
<path d="M10.0823 22.2571C7.83592 21.5155 7.63098 20.6795 7.25344 19.2691L6.31229 15.9684C6.25566 15.7553 5.70015 15.7553 5.64082 15.9684L5.0017 19.0183C4.62147 20.4233 3.81246 21.5397 2.43176 21.9955L0.231259 22.9501C-0.0734669 23.0499 -0.0788603 23.4814 0.225866 23.5838L2.44254 24.3686C3.81786 24.8243 4.62147 25.9407 5.0044 27.3403L5.64352 30.2581C5.70284 30.4712 6.25566 30.4712 6.31229 30.2581L7.06197 27.3538C7.44221 25.9461 8.02469 24.827 9.8935 24.3686L11.9753 23.5838C12.2801 23.4787 12.2774 23.0472 11.9699 22.9474L10.0823 22.2571Z" fill="#5DC4BC"/>
<path d="M6.4904 19.2215C6.71961 21.3411 6.83557 21.9289 8.55336 22.3685L12.1319 23.0669C12.0941 23.0157 12.0402 22.9726 11.9674 22.951L10.0797 22.2579C8.10841 21.5838 7.56368 20.7262 7.19423 19.0111C6.82479 17.296 6.43107 16.1769 6.43107 16.1769C6.29354 15.8075 6.09668 15.8263 6.09668 15.8263L6.4904 19.2215Z" fill="#5DC4BC"/>
<path d="M6.55495 26.6219C6.55495 24.6237 7.64711 23.634 9.38378 23.634L12.0859 23.5234C12.0859 23.5234 11.9295 23.7311 11.6571 23.7958L9.89345 24.3702C8.39679 24.9716 7.71453 25.2736 7.25069 27.3204C7.25069 27.3204 6.65203 29.7016 6.53877 29.9523C6.38236 30.3029 6.19629 30.3757 6.19629 30.3757L6.55495 26.6219Z" fill="#5DC4BC"/>
<path d="M14.9177 6.43629C15.0687 6.38505 15.0633 6.16932 14.9096 6.12617L12.8277 5.56526C12.3909 5.44661 12.0511 5.10952 11.9271 4.67535L11.1073 1.29101C11.0668 1.12651 10.8322 1.12651 10.7917 1.2937L10.0205 4.66457C9.90184 5.11222 9.55127 5.45739 9.10362 5.57335L7.03526 6.10999C6.88155 6.15044 6.87076 6.36618 7.02177 6.42011L9.2034 7.17518C9.59442 7.31002 9.89645 7.62823 10.0151 8.02464L10.7944 11.1501C10.8349 11.3119 11.0668 11.3146 11.1073 11.1501L11.9136 8.01385C12.0349 7.61744 12.3396 7.30193 12.7334 7.16979L14.9177 6.43629Z" fill="#5DC4BC" stroke="#5DC4BC" stroke-width="0.44107" stroke-miterlimit="10"/>
</svg>
