<svg width="32" height="32" viewBox="0 0 32 32" fill="none" xmlns="http://www.w3.org/2000/svg">
	<path d="M31.5963 15.4152L27.8398 14.2044C25.4371 13.4116 24.0294 11.4673 23.3687 9.02407L21.7156 0.971753C21.6725 0.812648 21.5673 0.599609 21.2437 0.599609C20.9714 0.599609 20.8149 0.812648 20.7718 0.971753L19.1187 9.02676C18.4553 11.47 17.0504 13.4143 14.6476 14.2071L10.8911 15.4179C10.3599 15.5905 10.3518 16.3402 10.8803 16.5209L14.6638 17.8234C17.0585 18.6189 18.4553 20.5605 19.1187 22.9929L20.7745 30.9562C20.8176 31.1153 20.9066 31.4012 21.2464 31.4012C21.6051 31.4012 21.6752 31.1153 21.7183 30.9562L23.3741 22.9929C24.0375 20.5578 25.4344 18.6162 27.829 17.8234L31.6125 16.5209C32.1357 16.3375 32.1276 15.5878 31.5963 15.4152Z" fill="#017DFC" />
	<path d="M31.9528 15.752C31.8935 15.6037 31.7775 15.4743 31.5969 15.415L27.8404 14.2041C25.4376 13.4113 24.03 11.467 23.3693 9.0238L21.7162 0.971485C21.6919 0.879798 21.6056 0.712603 21.5059 0.664062L22.0398 8.74604C22.4362 12.4351 22.776 14.1718 25.7208 14.6788C28.2503 15.1156 31.1762 15.6172 31.9528 15.752Z" fill="#017DFC" />
	<path d="M31.961 16.1729L25.4458 17.6668C23.1509 18.2493 21.8862 19.5788 21.8862 23.0575L21.2471 31.4011C21.4655 31.3795 21.6435 31.2608 21.719 30.9561L23.3748 22.9928C24.0381 20.5577 25.435 18.6161 27.8297 17.8232L31.6131 16.5207C31.7911 16.456 31.9044 16.3239 31.961 16.1729Z" fill="#017DFC" />
	<path d="M10.0823 22.4211C7.83592 21.6795 7.63098 20.8436 7.25344 19.4332L6.31229 16.1324C6.25566 15.9194 5.70015 15.9194 5.64082 16.1324L5.0017 19.1824C4.62147 20.5874 3.81246 21.7038 2.43176 22.1595L0.231259 23.1142C-0.0734669 23.2139 -0.0788603 23.6454 0.225866 23.7479L2.44254 24.5326C3.81786 24.9884 4.62147 26.1048 5.0044 27.5044L5.64352 30.4222C5.70284 30.6352 6.25566 30.6352 6.31229 30.4222L7.06197 27.5179C7.44221 26.1102 8.02469 24.9911 9.8935 24.5326L11.9753 23.7479C12.2801 23.6427 12.2774 23.2112 11.9699 23.1115L10.0823 22.4211Z" fill="#017DFC" />
	<path d="M6.4904 19.3846C6.71961 21.5042 6.83557 22.092 8.55336 22.5316L12.1319 23.23C12.0941 23.1788 12.0402 23.1356 11.9674 23.1141L10.0797 22.421C8.10841 21.7469 7.56368 20.8893 7.19423 19.1742C6.82479 17.4591 6.43107 16.34 6.43107 16.34C6.29354 15.9705 6.09668 15.9894 6.09668 15.9894L6.4904 19.3846Z" fill="#017DFC" />
	<path d="M6.55495 26.784C6.55495 24.7858 7.64711 23.7961 9.38378 23.7961L12.0859 23.6855C12.0859 23.6855 11.9295 23.8932 11.6571 23.9579L9.89345 24.5323C8.39679 25.1337 7.71453 25.4357 7.25069 27.4825C7.25069 27.4825 6.65203 29.8637 6.53877 30.1145C6.38236 30.465 6.19629 30.5378 6.19629 30.5378L6.55495 26.784Z" fill="#017DFC" />
	<path d="M14.9177 6.59938C15.0687 6.54814 15.0633 6.3324 14.9096 6.28926L12.8277 5.72835C12.3909 5.60969 12.0511 5.27261 11.9271 4.83844L11.1073 1.45409C11.0668 1.2896 10.8322 1.2896 10.7917 1.45679L10.0205 4.82765C9.90184 5.2753 9.55127 5.62048 9.10362 5.73644L7.03526 6.27308C6.88155 6.31353 6.87076 6.52926 7.02177 6.5832L9.2034 7.33827C9.59442 7.4731 9.89645 7.79131 10.0151 8.18773L10.7944 11.3132C10.8349 11.475 11.0668 11.4777 11.1073 11.3132L11.9136 8.17694C12.0349 7.78053 12.3396 7.46501 12.7334 7.33288L14.9177 6.59938Z" fill="#017DFC" stroke="#017DFC" stroke-width="0.44107" stroke-miterlimit="10" />
</svg>
