<svg width="143" height="22" viewBox="0 0 143 22" fill="none" xmlns="http://www.w3.org/2000/svg">
<g clip-path="url(#clip0_598_24826)">
<path d="M3.15297 13.7581C2.12262 12.7277 1.60744 12.2126 1.41574 11.5441C1.22405 10.8757 1.38787 10.1658 1.71553 8.746L1.90448 7.92721C2.18013 6.7327 2.31796 6.13544 2.72695 5.72646C3.13593 5.31747 3.73319 5.17965 4.9277 4.90399L5.74649 4.71504C7.16631 4.38739 7.87623 4.22356 8.54463 4.41526C9.21304 4.60695 9.72822 5.12213 10.7586 6.15249L11.9783 7.37224C13.771 9.1649 14.6673 10.0612 14.6673 11.175C14.6673 12.2889 13.771 13.1852 11.9783 14.9778C10.1857 16.7705 9.28935 17.6668 8.17553 17.6668C7.06172 17.6668 6.16539 16.7705 4.37273 14.9778L3.15297 13.7581Z" stroke="#344054"/>
<circle cx="5.73913" cy="8.91943" r="1.33333" transform="rotate(-45 5.73913 8.91943)" stroke="#344054"/>
<path d="M7.69352 15.3335L12.3462 10.6807" stroke="#344054" stroke-linecap="round"/>
</g>
<path d="M25.0043 16V5.81818H28.8224C29.6046 5.81818 30.2609 5.96401 30.7912 6.25568C31.3248 6.54735 31.7275 6.94839 31.9993 7.45881C32.2744 7.96591 32.4119 8.54261 32.4119 9.18892C32.4119 9.84186 32.2744 10.4219 31.9993 10.929C31.7242 11.4361 31.3182 11.8355 30.7812 12.1271C30.2443 12.4155 29.5831 12.5597 28.7976 12.5597H26.267V11.0433H28.549C29.0064 11.0433 29.3809 10.9638 29.6726 10.8047C29.9643 10.6456 30.1797 10.4268 30.3189 10.1484C30.4614 9.87003 30.5327 9.55019 30.5327 9.18892C30.5327 8.82765 30.4614 8.50947 30.3189 8.23438C30.1797 7.95928 29.9626 7.7455 29.6676 7.59304C29.3759 7.43726 28.9998 7.35938 28.5391 7.35938H26.8487V16H25.0043ZM33.9345 16V8.36364H35.6795V9.63636H35.7591C35.8983 9.19555 36.1369 8.85582 36.475 8.61719C36.8163 8.37524 37.2058 8.25426 37.6433 8.25426C37.7427 8.25426 37.8538 8.25923 37.9764 8.26918C38.1023 8.2758 38.2067 8.2874 38.2896 8.30398V9.95952C38.2134 9.933 38.0924 9.9098 37.9267 9.88991C37.7643 9.86671 37.6068 9.85511 37.4544 9.85511C37.1262 9.85511 36.8313 9.92637 36.5694 10.0689C36.3109 10.2081 36.1071 10.402 35.9579 10.6506C35.8088 10.8991 35.7342 11.1858 35.7342 11.5107V16H33.9345ZM39.4853 16V8.36364H41.285V16H39.4853ZM40.3901 7.27983C40.1051 7.27983 39.8598 7.18537 39.6543 6.99645C39.4488 6.80421 39.3461 6.57386 39.3461 6.3054C39.3461 6.03362 39.4488 5.80327 39.6543 5.61435C39.8598 5.42211 40.1051 5.32599 40.3901 5.32599C40.6784 5.32599 40.9237 5.42211 41.1259 5.61435C41.3314 5.80327 41.4341 6.03362 41.4341 6.3054C41.4341 6.57386 41.3314 6.80421 41.1259 6.99645C40.9237 7.18537 40.6784 7.27983 40.3901 7.27983ZM46.4666 16.1491C45.7043 16.1491 45.0497 15.9818 44.5028 15.647C43.9593 15.3123 43.54 14.8499 43.245 14.2599C42.9534 13.6667 42.8075 12.9839 42.8075 12.2116C42.8075 11.4361 42.9567 10.7517 43.255 10.1584C43.5533 9.56179 43.9742 9.09777 44.5178 8.76633C45.0646 8.43158 45.7109 8.2642 46.4567 8.2642C47.0765 8.2642 47.625 8.37855 48.1023 8.60724C48.5829 8.83262 48.9657 9.15246 49.2507 9.56676C49.5357 9.97775 49.6982 10.4583 49.7379 11.0085H48.0178C47.9482 10.6406 47.7824 10.334 47.5206 10.0888C47.2621 9.8402 46.9157 9.71591 46.4815 9.71591C46.1136 9.71591 45.7905 9.81534 45.5121 10.0142C45.2337 10.2098 45.0166 10.4915 44.8608 10.8594C44.7083 11.2273 44.6321 11.6681 44.6321 12.1818C44.6321 12.7022 44.7083 13.1496 44.8608 13.5241C45.0133 13.8954 45.227 14.1821 45.5021 14.3842C45.7805 14.5831 46.107 14.6825 46.4815 14.6825C46.7467 14.6825 46.9837 14.6328 47.1925 14.5334C47.4046 14.4306 47.5819 14.2831 47.7244 14.0909C47.867 13.8987 47.9647 13.665 48.0178 13.3899H49.7379C49.6948 13.9302 49.5357 14.4091 49.2607 14.8267C48.9856 15.241 48.611 15.5658 48.1371 15.8011C47.6631 16.0331 47.1063 16.1491 46.4666 16.1491ZM54.5964 16.1491C53.8308 16.1491 53.1696 15.9901 52.6127 15.6719C52.0592 15.3504 51.6333 14.8963 51.335 14.3097C51.0368 13.7197 50.8876 13.0253 50.8876 12.2266C50.8876 11.4411 51.0368 10.7517 51.335 10.1584C51.6367 9.56179 52.0576 9.09777 52.5978 8.76633C53.1381 8.43158 53.7728 8.2642 54.502 8.2642C54.9726 8.2642 55.4167 8.34044 55.8343 8.4929C56.2553 8.64205 56.6265 8.87405 56.948 9.18892C57.2728 9.50379 57.528 9.90483 57.7136 10.392C57.8992 10.8759 57.992 11.4527 57.992 12.1222V12.674H51.7328V11.4609H56.2669C56.2636 11.1162 56.189 10.8097 56.0431 10.5412C55.8973 10.2694 55.6935 10.0556 55.4316 9.89986C55.1731 9.74408 54.8715 9.66619 54.5268 9.66619C54.1589 9.66619 53.8358 9.75568 53.5574 9.93466C53.2789 10.1103 53.0618 10.3423 52.9061 10.6307C52.7536 10.9157 52.6757 11.2289 52.6724 11.5703V12.6293C52.6724 13.0734 52.7536 13.4545 52.916 13.7727C53.0784 14.0876 53.3055 14.3295 53.5971 14.4986C53.8888 14.6643 54.2302 14.7472 54.6213 14.7472C54.8831 14.7472 55.1201 14.7107 55.3322 14.6378C55.5443 14.5616 55.7283 14.4505 55.8841 14.3047C56.0398 14.1589 56.1575 13.9782 56.237 13.7628L57.9174 13.9517C57.8114 14.3958 57.6092 14.7836 57.3109 15.1151C57.0159 15.4432 56.6381 15.6984 56.1774 15.8807C55.7167 16.0597 55.1897 16.1491 54.5964 16.1491ZM60.6232 16.1094C60.3216 16.1094 60.0631 16.0033 59.8477 15.7912C59.6322 15.5791 59.5262 15.3205 59.5295 15.0156C59.5262 14.7173 59.6322 14.4621 59.8477 14.25C60.0631 14.0379 60.3216 13.9318 60.6232 13.9318C60.9149 13.9318 61.1684 14.0379 61.3839 14.25C61.6026 14.4621 61.7137 14.7173 61.717 15.0156C61.7137 15.2178 61.6606 15.4018 61.5579 15.5675C61.4585 15.7332 61.3259 15.8658 61.1602 15.9652C60.9978 16.0613 60.8188 16.1094 60.6232 16.1094ZM60.6232 10.6605C60.3216 10.6605 60.0631 10.5545 59.8477 10.3423C59.6322 10.1269 59.5262 9.86837 59.5295 9.56676C59.5262 9.26847 59.6322 9.01326 59.8477 8.80114C60.0631 8.5857 60.3216 8.47798 60.6232 8.47798C60.9149 8.47798 61.1684 8.5857 61.3839 8.80114C61.6026 9.01326 61.7137 9.26847 61.717 9.56676C61.7137 9.76562 61.6606 9.94792 61.5579 10.1136C61.4585 10.2794 61.3259 10.4119 61.1602 10.5114C60.9978 10.6108 60.8188 10.6605 60.6232 10.6605ZM70.4284 16.1491C69.6628 16.1491 69.0016 15.9901 68.4448 15.6719C67.8913 15.3504 67.4654 14.8963 67.1671 14.3097C66.8688 13.7197 66.7196 13.0253 66.7196 12.2266C66.7196 11.4411 66.8688 10.7517 67.1671 10.1584C67.4687 9.56179 67.8896 9.09777 68.4299 8.76633C68.9701 8.43158 69.6048 8.2642 70.334 8.2642C70.8046 8.2642 71.2488 8.34044 71.6664 8.4929C72.0873 8.64205 72.4585 8.87405 72.78 9.18892C73.1048 9.50379 73.36 9.90483 73.5456 10.392C73.7312 10.8759 73.824 11.4527 73.824 12.1222V12.674H67.5648V11.4609H72.0989C72.0956 11.1162 72.021 10.8097 71.8752 10.5412C71.7293 10.2694 71.5255 10.0556 71.2637 9.89986C71.0051 9.74408 70.7035 9.66619 70.3588 9.66619C69.9909 9.66619 69.6678 9.75568 69.3894 9.93466C69.111 10.1103 68.8939 10.3423 68.7381 10.6307C68.5856 10.9157 68.5078 11.2289 68.5044 11.5703V12.6293C68.5044 13.0734 68.5856 13.4545 68.748 13.7727C68.9105 14.0876 69.1375 14.3295 69.4292 14.4986C69.7208 14.6643 70.0622 14.7472 70.4533 14.7472C70.7151 14.7472 70.9521 14.7107 71.1642 14.6378C71.3764 14.5616 71.5603 14.4505 71.7161 14.3047C71.8719 14.1589 71.9895 13.9782 72.0691 13.7628L73.7495 13.9517C73.6434 14.3958 73.4412 14.7836 73.1429 15.1151C72.848 15.4432 72.4701 15.6984 72.0094 15.8807C71.5487 16.0597 71.0217 16.1491 70.4284 16.1491ZM76.4553 16.1094C76.1536 16.1094 75.8951 16.0033 75.6797 15.7912C75.4643 15.5791 75.3582 15.3205 75.3615 15.0156C75.3582 14.7173 75.4643 14.4621 75.6797 14.25C75.8951 14.0379 76.1536 13.9318 76.4553 13.9318C76.7469 13.9318 77.0005 14.0379 77.2159 14.25C77.4347 14.4621 77.5457 14.7173 77.549 15.0156C77.5457 15.2178 77.4927 15.4018 77.3899 15.5675C77.2905 15.7332 77.1579 15.8658 76.9922 15.9652C76.8298 16.0613 76.6508 16.1094 76.4553 16.1094ZM82.7282 19.0227C82.0819 19.0227 81.5267 18.9349 81.0627 18.7592C80.5987 18.5869 80.2258 18.3549 79.9441 18.0632C79.6623 17.7715 79.4668 17.4484 79.3574 17.0938L80.9782 16.701C81.0511 16.8501 81.1571 16.9976 81.2963 17.1435C81.4355 17.2926 81.6228 17.4152 81.8581 17.5114C82.0968 17.6108 82.3967 17.6605 82.758 17.6605C83.2684 17.6605 83.691 17.5362 84.0257 17.2876C84.3605 17.0424 84.5279 16.638 84.5279 16.0746V14.6278H84.4384C84.3456 14.8134 84.2097 15.004 84.0307 15.1996C83.8551 15.3951 83.6214 15.5592 83.3297 15.6918C83.0414 15.8243 82.6784 15.8906 82.2409 15.8906C81.6543 15.8906 81.1223 15.7531 80.6451 15.478C80.1711 15.1996 79.7933 14.7853 79.5115 14.2351C79.2331 13.6816 79.0939 12.9889 79.0939 12.157C79.0939 11.3184 79.2331 10.6108 79.5115 10.0341C79.7933 9.45407 80.1728 9.01491 80.65 8.71662C81.1273 8.41501 81.6593 8.2642 82.2459 8.2642C82.6934 8.2642 83.0613 8.34044 83.3496 8.4929C83.6413 8.64205 83.8733 8.82268 84.0456 9.0348C84.218 9.24361 84.3489 9.44081 84.4384 9.62642H84.5378V8.36364H86.3127V16.1243C86.3127 16.7772 86.1569 17.3175 85.8453 17.745C85.5338 18.1726 85.1079 18.4924 84.5676 18.7045C84.0274 18.9167 83.4142 19.0227 82.7282 19.0227ZM82.7431 14.4787C83.1242 14.4787 83.449 14.3859 83.7175 14.2003C83.986 14.0147 84.1898 13.7479 84.329 13.3999C84.4682 13.0518 84.5378 12.6342 84.5378 12.147C84.5378 11.6664 84.4682 11.2455 84.329 10.8842C84.1931 10.523 83.9909 10.2429 83.7225 10.044C83.4573 9.84186 83.1309 9.74077 82.7431 9.74077C82.342 9.74077 82.0073 9.84517 81.7388 10.054C81.4703 10.2628 81.2682 10.5495 81.1323 10.9141C80.9964 11.2753 80.9284 11.6863 80.9284 12.147C80.9284 12.6143 80.9964 13.0237 81.1323 13.375C81.2715 13.723 81.4753 13.9948 81.7438 14.1903C82.0156 14.3826 82.3487 14.4787 82.7431 14.4787ZM89.2658 16.1094C88.9642 16.1094 88.7057 16.0033 88.4902 15.7912C88.2748 15.5791 88.1687 15.3205 88.1721 15.0156C88.1687 14.7173 88.2748 14.4621 88.4902 14.25C88.7057 14.0379 88.9642 13.9318 89.2658 13.9318C89.5575 13.9318 89.811 14.0379 90.0265 14.25C90.2452 14.4621 90.3562 14.7173 90.3596 15.0156C90.3562 15.2178 90.3032 15.4018 90.2005 15.5675C90.101 15.7332 89.9685 15.8658 89.8027 15.9652C89.6403 16.0613 89.4614 16.1094 89.2658 16.1094ZM99.5458 16.1392C98.863 16.1392 98.2598 16.0182 97.7362 15.7763C97.2158 15.531 96.8098 15.1946 96.5181 14.767C96.2264 14.3362 96.0823 13.8456 96.0856 13.2955C96.0823 12.8646 96.1668 12.4669 96.3391 12.1023C96.5115 11.7344 96.7468 11.4278 97.0451 11.1825C97.3467 10.9339 97.6831 10.7765 98.0543 10.7102V10.6506C97.5671 10.5246 97.1793 10.2512 96.891 9.83026C96.6026 9.40601 96.4601 8.92377 96.4634 8.38352C96.4601 7.86648 96.591 7.40412 96.8562 6.99645C97.1213 6.58878 97.4859 6.26728 97.9499 6.03196C98.4173 5.79664 98.9492 5.67898 99.5458 5.67898C100.136 5.67898 100.663 5.79664 101.127 6.03196C101.591 6.26728 101.955 6.58878 102.221 6.99645C102.489 7.40412 102.625 7.86648 102.628 8.38352C102.625 8.92377 102.477 9.40601 102.186 9.83026C101.897 10.2512 101.515 10.5246 101.037 10.6506V10.7102C101.405 10.7765 101.737 10.9339 102.032 11.1825C102.327 11.4278 102.562 11.7344 102.738 12.1023C102.913 12.4669 103.003 12.8646 103.006 13.2955C103.003 13.8456 102.854 14.3362 102.559 14.767C102.267 15.1946 101.861 15.531 101.341 15.7763C100.824 16.0182 100.225 16.1392 99.5458 16.1392ZM99.5458 15.0455C100.007 15.0455 100.404 14.9709 100.739 14.8217C101.074 14.6726 101.332 14.4621 101.515 14.1903C101.697 13.9186 101.79 13.6004 101.793 13.2358C101.79 12.8513 101.69 12.5116 101.495 12.2166C101.299 11.9216 101.032 11.6896 100.694 11.5206C100.359 11.3516 99.9767 11.267 99.5458 11.267C99.1116 11.267 98.7238 11.3516 98.3825 11.5206C98.0444 11.6896 97.7776 11.9216 97.582 12.2166C97.3898 12.5116 97.2953 12.8513 97.2987 13.2358C97.2953 13.6004 97.3832 13.9186 97.5621 14.1903C97.7444 14.4621 98.0046 14.6726 98.3427 14.8217C98.6808 14.9709 99.0818 15.0455 99.5458 15.0455ZM99.5458 10.2131C99.9104 10.2131 100.234 10.1402 100.515 9.99432C100.8 9.84848 101.024 9.64465 101.186 9.38281C101.349 9.12098 101.432 8.81439 101.435 8.46307C101.432 8.11837 101.35 7.81842 101.191 7.56321C101.032 7.30469 100.812 7.10582 100.53 6.96662C100.248 6.8241 99.9203 6.75284 99.5458 6.75284C99.1647 6.75284 98.8316 6.8241 98.5465 6.96662C98.2615 7.10582 98.0411 7.30469 97.8853 7.56321C97.7295 7.81842 97.6533 8.11837 97.6566 8.46307C97.6533 8.81439 97.7312 9.12098 97.8903 9.38281C98.0527 9.64465 98.2764 9.84848 98.5614 9.99432C98.8465 10.1402 99.1746 10.2131 99.5458 10.2131ZM105.472 16.0795C105.227 16.0795 105.016 15.9917 104.841 15.8161C104.665 15.6404 104.577 15.4299 104.577 15.1847C104.577 14.9394 104.665 14.7289 104.841 14.5533C105.016 14.3776 105.227 14.2898 105.472 14.2898C105.717 14.2898 105.928 14.3776 106.103 14.5533C106.279 14.7289 106.367 14.9394 106.367 15.1847C106.367 15.3471 106.325 15.4962 106.243 15.6321C106.163 15.768 106.055 15.8774 105.919 15.9602C105.787 16.0398 105.638 16.0795 105.472 16.0795ZM111.399 16.1392C110.717 16.1392 110.113 16.0182 109.59 15.7763C109.069 15.531 108.663 15.1946 108.372 14.767C108.08 14.3362 107.936 13.8456 107.939 13.2955C107.936 12.8646 108.02 12.4669 108.193 12.1023C108.365 11.7344 108.6 11.4278 108.899 11.1825C109.2 10.9339 109.537 10.7765 109.908 10.7102V10.6506C109.421 10.5246 109.033 10.2512 108.744 9.83026C108.456 9.40601 108.314 8.92377 108.317 8.38352C108.314 7.86648 108.445 7.40412 108.71 6.99645C108.975 6.58878 109.339 6.26728 109.803 6.03196C110.271 5.79664 110.803 5.67898 111.399 5.67898C111.989 5.67898 112.516 5.79664 112.98 6.03196C113.444 6.26728 113.809 6.58878 114.074 6.99645C114.343 7.40412 114.478 7.86648 114.482 8.38352C114.478 8.92377 114.331 9.40601 114.039 9.83026C113.751 10.2512 113.368 10.5246 112.891 10.6506V10.7102C113.259 10.7765 113.59 10.9339 113.885 11.1825C114.18 11.4278 114.415 11.7344 114.591 12.1023C114.767 12.4669 114.856 12.8646 114.86 13.2955C114.856 13.8456 114.707 14.3362 114.412 14.767C114.12 15.1946 113.714 15.531 113.194 15.7763C112.677 16.0182 112.079 16.1392 111.399 16.1392ZM111.399 15.0455C111.86 15.0455 112.258 14.9709 112.593 14.8217C112.927 14.6726 113.186 14.4621 113.368 14.1903C113.55 13.9186 113.643 13.6004 113.646 13.2358C113.643 12.8513 113.544 12.5116 113.348 12.2166C113.153 11.9216 112.886 11.6896 112.548 11.5206C112.213 11.3516 111.83 11.267 111.399 11.267C110.965 11.267 110.577 11.3516 110.236 11.5206C109.898 11.6896 109.631 11.9216 109.436 12.2166C109.243 12.5116 109.149 12.8513 109.152 13.2358C109.149 13.6004 109.237 13.9186 109.416 14.1903C109.598 14.4621 109.858 14.6726 110.196 14.8217C110.534 14.9709 110.935 15.0455 111.399 15.0455ZM111.399 10.2131C111.764 10.2131 112.087 10.1402 112.369 9.99432C112.654 9.84848 112.878 9.64465 113.04 9.38281C113.202 9.12098 113.285 8.81439 113.289 8.46307C113.285 8.11837 113.204 7.81842 113.045 7.56321C112.886 7.30469 112.665 7.10582 112.384 6.96662C112.102 6.8241 111.774 6.75284 111.399 6.75284C111.018 6.75284 110.685 6.8241 110.4 6.96662C110.115 7.10582 109.895 7.30469 109.739 7.56321C109.583 7.81842 109.507 8.11837 109.51 8.46307C109.507 8.81439 109.585 9.12098 109.744 9.38281C109.906 9.64465 110.13 9.84848 110.415 9.99432C110.7 10.1402 111.028 10.2131 111.399 10.2131ZM120.086 16.1392C119.337 16.1392 118.699 15.9354 118.172 15.5277C117.645 15.1167 117.242 14.5218 116.964 13.7429C116.685 12.9607 116.546 12.0161 116.546 10.9091C116.546 9.80871 116.685 8.86908 116.964 8.0902C117.246 7.308 117.65 6.71141 118.177 6.30043C118.707 5.88613 119.344 5.67898 120.086 5.67898C120.828 5.67898 121.463 5.88613 121.99 6.30043C122.52 6.71141 122.925 7.308 123.203 8.0902C123.485 8.86908 123.626 9.80871 123.626 10.9091C123.626 12.0161 123.487 12.9607 123.208 13.7429C122.93 14.5218 122.527 15.1167 122 15.5277C121.473 15.9354 120.835 16.1392 120.086 16.1392ZM120.086 15.0455C120.828 15.0455 121.405 14.6875 121.816 13.9716C122.227 13.2557 122.433 12.2348 122.433 10.9091C122.433 10.0275 122.338 9.27675 122.149 8.65696C121.964 8.03717 121.695 7.56487 121.344 7.24006C120.996 6.91525 120.576 6.75284 120.086 6.75284C119.35 6.75284 118.775 7.11577 118.361 7.84162C117.946 8.56416 117.739 9.58665 117.739 10.9091C117.739 11.7907 117.832 12.5398 118.018 13.1562C118.203 13.7727 118.47 14.2417 118.818 14.5632C119.17 14.8847 119.592 15.0455 120.086 15.0455ZM128.836 16.1392C128.087 16.1392 127.449 15.9354 126.922 15.5277C126.395 15.1167 125.992 14.5218 125.714 13.7429C125.435 12.9607 125.296 12.0161 125.296 10.9091C125.296 9.80871 125.435 8.86908 125.714 8.0902C125.996 7.308 126.4 6.71141 126.927 6.30043C127.457 5.88613 128.094 5.67898 128.836 5.67898C129.578 5.67898 130.213 5.88613 130.74 6.30043C131.27 6.71141 131.675 7.308 131.953 8.0902C132.235 8.86908 132.376 9.80871 132.376 10.9091C132.376 12.0161 132.237 12.9607 131.958 13.7429C131.68 14.5218 131.277 15.1167 130.75 15.5277C130.223 15.9354 129.585 16.1392 128.836 16.1392ZM128.836 15.0455C129.578 15.0455 130.155 14.6875 130.566 13.9716C130.977 13.2557 131.183 12.2348 131.183 10.9091C131.183 10.0275 131.088 9.27675 130.899 8.65696C130.714 8.03717 130.445 7.56487 130.094 7.24006C129.746 6.91525 129.326 6.75284 128.836 6.75284C128.1 6.75284 127.525 7.11577 127.111 7.84162C126.696 8.56416 126.489 9.58665 126.489 10.9091C126.489 11.7907 126.582 12.5398 126.768 13.1562C126.953 13.7727 127.22 14.2417 127.568 14.5632C127.92 14.8847 128.342 15.0455 128.836 15.0455ZM140.509 9.41761L140.052 10.4119H133.569L133.927 9.41761H140.509ZM139.654 11.4062L139.197 12.4006H133.569L133.927 11.4062H139.654ZM141.683 6.73295L141.205 7.76705C140.993 7.57481 140.769 7.40909 140.534 7.26989C140.299 7.13068 140.052 7.02296 139.793 6.94673C139.535 6.8705 139.263 6.83239 138.978 6.83239C138.415 6.83239 137.907 6.98816 137.457 7.29972C137.006 7.61127 136.65 8.07031 136.388 8.67685C136.126 9.28338 135.995 10.0275 135.995 10.9091C135.995 11.7907 136.126 12.5348 136.388 13.1413C136.65 13.7479 137.006 14.2069 137.457 14.5185C137.907 14.83 138.415 14.9858 138.978 14.9858C139.27 14.9858 139.545 14.9477 139.803 14.8714C140.065 14.7952 140.309 14.6908 140.534 14.5582C140.763 14.4257 140.973 14.2765 141.165 14.1108L141.663 15.1449C141.315 15.473 140.907 15.7216 140.44 15.8906C139.972 16.0563 139.485 16.1392 138.978 16.1392C138.163 16.1392 137.44 15.9271 136.81 15.5028C136.184 15.0786 135.692 14.4754 135.334 13.6932C134.979 12.911 134.802 11.983 134.802 10.9091C134.802 9.83523 134.979 8.9072 135.334 8.125C135.692 7.3428 136.184 6.73958 136.81 6.31534C137.44 5.8911 138.163 5.67898 138.978 5.67898C139.505 5.67898 139.997 5.77012 140.455 5.95241C140.915 6.13471 141.325 6.39489 141.683 6.73295Z" fill="#344054"/>
<defs>
<clipPath id="clip0_598_24826">
<rect width="16" height="16" fill="white" transform="translate(0 3)"/>
</clipPath>
</defs>
</svg>
