<svg width="16" height="16" viewBox="0 0 16 16" fill="none" xmlns="http://www.w3.org/2000/svg">
<g clip-path="url(#clip0_598_25295)">
<path d="M3.15297 10.7581C2.12262 9.72773 1.60744 9.21255 1.41574 8.54415C1.22405 7.87574 1.38787 7.16583 1.71553 5.746L1.90448 4.92721C2.18013 3.7327 2.31796 3.13544 2.72695 2.72646C3.13593 2.31747 3.73319 2.17965 4.9277 1.90399L5.74649 1.71504C7.16631 1.38739 7.87623 1.22356 8.54463 1.41526C9.21304 1.60695 9.72822 2.12213 10.7586 3.15249L11.9783 4.37224C13.771 6.1649 14.6673 7.06123 14.6673 8.17504C14.6673 9.28886 13.771 10.1852 11.9783 11.9778C10.1857 13.7705 9.28935 14.6668 8.17553 14.6668C7.06172 14.6668 6.16539 13.7705 4.37273 11.9778L3.15297 10.7581Z" stroke="#344054"/>
<circle cx="5.73913" cy="5.91943" r="1.33333" transform="rotate(-45 5.73913 5.91943)" stroke="#344054"/>
<path d="M7.69352 12.3335L12.3462 7.68066" stroke="#344054" stroke-linecap="round"/>
</g>
<defs>
<clipPath id="clip0_598_25295">
<rect width="16" height="16" fill="white"/>
</clipPath>
</defs>
</svg>
