<svg viewBox="0 0 24 24" fill="none" xmlns="http://www.w3.org/2000/svg">
<path d="M20 14V11.375C20 10.4799 19.6444 9.62145 19.0115 8.98851C18.3786 8.35558 17.5201 8 16.625 8H15.125C14.8266 8 14.5405 7.88147 14.3295 7.6705C14.1185 7.45952 14 7.17337 14 6.875V5.375C14 4.47989 13.6444 3.62145 13.0115 2.98851C12.3785 2.35558 11.5201 2 10.625 2H8.75M8.75 14.75H16.25M8.75 17.75H12.5M11 2H6.125C5.504 2 5 2.504 5 3.125V20.375C5 20.996 5.504 21.5 6.125 21.5H18.875C19.496 21.5 20 20.996 20 20.375V11C20 8.61305 19.0518 6.32387 17.364 4.63604C15.6761 2.94821 13.3869 2 11 2Z" stroke-width="1.5" stroke-linecap="round" stroke-linejoin="round"/>
</svg>
