<svg width="28" height="29" viewBox="0 0 28 29" fill="none" xmlns="http://www.w3.org/2000/svg">
<path fill-rule="evenodd" clip-rule="evenodd" d="M5.22273 18.3377C6.75609 16.2001 9.47174 14.5924 13.9999 14.5924C18.5281 14.5924 21.2438 16.2001 22.7772 18.3377C24.2591 20.4035 24.4952 22.7714 24.4999 24.0816C24.5046 25.3991 23.4 26.2591 22.2676 26.2591H5.7323C4.59984 26.2591 3.49528 25.3991 3.50002 24.0816C3.50473 22.7714 3.74077 20.4035 5.22273 18.3377ZM5.83541 23.9258H22.1645C22.1404 22.815 21.9014 21.1199 20.8812 19.6977C19.8607 18.2751 17.914 16.9258 13.9999 16.9258C10.0859 16.9258 8.13923 18.2751 7.11869 19.6977C6.09845 21.1199 5.85951 22.815 5.83541 23.9258Z" fill="white"/>
<path fill-rule="evenodd" clip-rule="evenodd" d="M14.0001 9.92578C15.2887 9.92578 16.3334 8.88111 16.3334 7.59245C16.3334 6.30378 15.2887 5.25911 14.0001 5.25911C12.7114 5.25911 11.6667 6.30378 11.6667 7.59245C11.6667 8.88111 12.7114 9.92578 14.0001 9.92578ZM14.0001 12.2591C16.5774 12.2591 18.6667 10.1698 18.6667 7.59245C18.6667 5.01512 16.5774 2.92578 14.0001 2.92578C11.4227 2.92578 9.33339 5.01512 9.33339 7.59245C9.33339 10.1698 11.4227 12.2591 14.0001 12.2591Z" fill="white"/>
</svg>
