<svg width="40" height="40" viewBox="0 0 40 40" fill="none" xmlns="http://www.w3.org/2000/svg">
<rect width="40" height="40" rx="6" fill="white" fill-opacity="0.3"/>
<path d="M30 20C30 25.5228 25.5228 30 20 30M30 20C30 14.4772 25.5228 10 20 10M30 20H10M20 30C14.4772 30 10 25.5228 10 20M20 30C22.5013 27.2616 23.9228 23.708 24 20C23.9228 16.292 22.5013 12.7384 20 10M20 30C17.4987 27.2616 16.0772 23.708 16 20C16.0772 16.292 17.4987 12.7384 20 10M10 20C10 14.4772 14.4772 10 20 10" stroke="white" stroke-width="1.5" stroke-linecap="round" stroke-linejoin="round"/>
</svg>
